<?xml version="1.0" standalone="no"?>
<!DOCTYPE svg PUBLIC "-//W3C//DTD SVG 20010904//EN"
 "http://www.w3.org/TR/2001/REC-SVG-20010904/DTD/svg10.dtd">
<svg version="1.0" xmlns="http://www.w3.org/2000/svg"
 width="228.000000pt" height="228.000000pt" viewBox="0 0 228.000000 228.000000"
 preserveAspectRatio="xMidYMid meet">
<metadata>
Created by potrace 1.11, written by Peter Selinger 2001-2013
</metadata>
<g transform="translate(0.000000,228.000000) scale(0.100000,-0.100000)"
fill="#000000" stroke="none">
<path d="M0 1140 l0 -1140 1140 0 1140 0 0 1140 0 1140 -1140 0 -1140 0 0
-1140z m507 406 c132 -56 164 -232 61 -328 -37 -34 -38 -37 -19 -43 30 -9 79
-53 95 -84 38 -75 26 -193 -27 -263 -18 -23 -54 -53 -81 -67 -47 -24 -59 -26
-248 -29 l-198 -4 0 422 0 422 188 -4 c152 -3 195 -7 229 -22z m1395 -7 c197
-66 318 -261 287 -461 -30 -194 -196 -345 -391 -356 -334 -19 -555 308 -411
606 89 182 320 277 515 211z m-928 -131 c39 -64 74 -119 77 -122 3 -4 37 42
74 101 98 155 81 143 202 143 56 0 103 -2 103 -4 0 -2 -59 -91 -132 -197 -72
-107 -131 -199 -131 -204 0 -6 54 -91 119 -190 66 -99 124 -186 128 -192 6
-10 -20 -13 -116 -13 l-123 0 -75 125 c-41 68 -78 124 -82 125 -4 0 -42 -56
-85 -125 l-78 -125 -107 0 c-60 0 -108 2 -108 5 0 3 59 94 132 202 72 109 131
203 131 209 0 7 -50 93 -111 192 -62 99 -112 183 -112 187 0 3 50 4 112 3
l112 -3 70 -117z"/>
<path d="M290 1321 l0 -81 39 0 c50 0 99 18 111 40 31 58 -7 106 -93 116 l-57
7 0 -82z"/>
<path d="M290 996 l0 -96 50 0 c99 0 136 32 128 110 -4 46 -39 68 -115 76
l-63 7 0 -97z"/>
<path d="M1675 1342 c-77 -36 -125 -114 -125 -205 0 -111 106 -217 219 -217
62 0 89 10 135 51 113 98 107 270 -11 352 -55 39 -157 48 -218 19z m265 -207
l0 -85 -170 0 -170 0 0 85 0 85 170 0 170 0 0 -85z"/>
</g>
</svg>
